<svg width="50" height="50" viewBox="0 0 50 50" fill="none" xmlns="http://www.w3.org/2000/svg">
<path d="M50 25C50 38.8071 38.8071 50 25 50C11.1929 50 0 38.8071 0 25C0 11.1929 11.1929 0 25 0C38.8071 0 50 11.1929 50 25Z" fill="#27AE60"/>
<path d="M25 10C16.7159 10 10 16.7504 10 25.0771C10 32.6362 15.5398 38.8774 22.7582 39.9678V29.0732H19.047V25.11H22.7582V22.4729C22.7582 18.1067 24.8745 16.1898 28.4848 16.1898C30.2139 16.1898 31.1282 16.3187 31.5611 16.3776V19.8371H29.0984C27.5657 19.8371 27.0305 21.2975 27.0305 22.9437V25.11H31.5223L30.9127 29.0732H27.0305V40C34.3518 39.0015 40 32.7095 40 25.0771C40 16.7504 33.2841 10 25 10Z" fill="white"/>
</svg>
