<svg width="50" height="50" viewBox="0 0 50 50" fill="none" xmlns="http://www.w3.org/2000/svg">
<path d="M50 25C50 38.8071 38.8071 50 25 50C11.1929 50 0 38.8071 0 25C0 11.1929 11.1929 0 25 0C38.8071 0 50 11.1929 50 25Z" fill="#27AE60"/>
<path d="M25.2745 40.75C16.8527 40.75 10 33.8537 10 25.375C10 16.8963 16.8527 10 25.2745 10C29.0899 10 32.7419 11.4231 35.5613 14.0083L36.0749 14.4809L31.0378 19.5519L30.571 19.1498C29.0925 17.8755 27.2121 17.1731 25.2745 17.1731C20.7822 17.1731 17.125 20.8523 17.125 25.375C17.125 29.8977 20.7822 33.5769 25.2745 33.5769C28.5141 33.5769 31.0741 31.9109 32.2802 29.0725H24.6105V22.1501L39.5842 22.171L39.6957 22.7011C40.4765 26.4326 39.8514 31.9214 36.687 35.8487C34.0673 39.0997 30.2286 40.75 25.2745 40.75Z" fill="white"/>
</svg>
