<svg width="230" height="102" viewBox="0 0 230 102" fill="none" xmlns="http://www.w3.org/2000/svg">
<path d="M61.1435 3.17838C61.4854 1.6365 62.5683 0.722792 65.076 0.380149C65.646 0.265938 66.2159 0.323043 75.3349 0.608577C76.2468 0.608577 77.2157 0.551471 84.1689 0.0946162C85.1948 -0.0195957 86.1637 -0.0195957 87.1325 0.0375103C99.3861 0.551471 105.199 7.34717 103.148 17.0553C102.692 19.2254 101.723 21.2812 100.355 23.0515C97.6193 26.4779 94.5417 28.0769 89.2413 28.648C87.7595 28.7622 86.6196 28.7622 83.029 28.648C81.9461 28.5909 81.9461 28.5909 81.6612 30.5325C80.9772 34.9868 82.2881 37.0426 85.7077 38.1848C86.2776 38.3561 86.8476 39.898 85.5937 41.7254C84.1119 43.9526 81.7751 44.7521 71.7443 44.5236C66.2729 44.4094 63.6512 43.5528 62.2834 42.3536C60.9725 41.0972 60.8585 38.9843 61.6564 38.3561C62.2834 37.8993 63.0813 37.4424 63.7652 37.0426C65.475 35.8434 65.646 35.2152 65.703 30.8751L65.9309 15.2279C66.0449 7.97534 65.589 6.83321 61.7704 5.74818C61.2005 5.63397 60.8015 4.77737 61.1435 3.17838ZM84.9098 20.4246C86.6766 19.7393 88.0444 17.5122 87.8165 13.9144C87.6455 10.8307 86.6196 9.11748 84.4538 7.97534C82.687 7.00453 81.3192 7.80402 81.2052 9.06037C81.0342 10.8307 80.9772 12.7152 80.9772 14.4855C80.9202 21.6238 80.9202 21.7952 84.9098 20.4246Z" fill="#F7931E"/>
<path d="M105.166 30.0756C105.109 29.5046 105.109 28.9906 105.109 28.4195C105.223 22.4233 108.13 17.5122 113.943 14.2571C116.622 12.7723 119.528 11.9157 122.378 11.8586C124.601 11.8586 126.767 12.4297 128.818 13.2863C133.663 15.3421 136.684 19.2254 137.424 23.5655C137.994 27.2203 137.823 27.9056 135.886 29.1619C134.29 30.1898 128.59 31.0464 119.927 29.7901C119.756 29.6759 119.528 29.6759 119.3 29.6759C118.617 29.7901 118.218 30.4183 118.56 31.4462C118.788 32.3599 119.186 32.9881 120.326 34.2444C122.834 37.0998 126.824 37.3282 132.523 34.1873C132.808 34.016 133.036 33.9018 133.264 33.7305C133.435 33.6162 133.72 33.6162 134.518 33.9589C135.316 34.3015 136 35.0439 136.342 36.0147C136.854 37.6708 135.886 39.4982 132.067 42.068C128.818 44.2381 124.259 45.3802 119.073 44.6949C112.917 43.9526 108.586 40.7546 106.306 34.9297C105.679 33.3307 105.28 31.6746 105.166 30.0756ZM122.036 23.6797L123.632 23.6226H123.803C125.684 23.337 126.14 22.5947 125.228 20.1391C125.057 19.6251 124.772 19.2254 124.373 18.7114C122.606 17.2266 120.098 17.6264 118.731 20.0249C118.56 20.4246 118.389 20.8243 118.332 21.2812C117.819 23.7939 118.104 23.851 122.036 23.6797Z" fill="#F7931E"/>
<path d="M146.523 19.6822L144.244 19.568H144.016C141.109 19.6251 140.653 19.4538 141.052 16.0274C141.109 15.3421 141.394 14.9995 142.762 13.9715C143.56 13.4576 144.472 12.8865 149.544 10.2025C149.772 10.0883 149.943 9.85986 153.363 7.23295C154.616 6.31925 155.357 5.9195 156.098 5.80529C159.518 5.0629 160.544 6.14793 160.487 9.57433L160.316 12.4297V12.6581C160.259 13.4005 160.487 13.4005 161.627 13.4005C161.912 13.3434 162.311 13.4005 163.963 13.4576C165.844 13.5718 166.756 13.5718 167.554 13.5147C168.181 13.4576 168.865 13.9144 169.378 15.1708C169.606 15.7419 169.663 16.37 169.549 17.1695C169.036 19.6251 168.466 19.7964 164.134 19.8535H161.684C160.031 19.7964 160.259 19.6822 160.487 24.9931C160.544 27.1061 160.544 29.2761 160.487 31.4462V31.5604L160.772 33.2736C161.171 35.7292 162.994 36.5287 166.642 34.4728C167.269 34.0731 168.181 34.3015 168.922 35.2152C169.264 35.5579 169.606 36.4716 169.606 37.9564C169.606 39.2127 168.58 40.6404 165.388 42.6962C163.621 43.8955 161.285 44.6378 158.72 44.8092C153.021 45.266 149.373 43.3815 147.606 39.6124C146.409 37.2711 146.181 35.3866 146.295 24.5363C146.295 22.8802 146.409 21.3383 146.523 19.6822Z" fill="#F7931E"/>
<path d="M0.25659 97.7471C0.0286162 96.091 0.655545 95.1202 4.13215 93.2927C4.53111 93.0643 4.93006 91.7509 5.04405 78.9018C5.10104 66.4526 4.93006 65.4818 2.30836 64.3396C1.73842 64.1112 1.22548 63.8257 0.826526 63.5402C-0.370338 62.7407 -0.370339 60.8561 1.51045 59.3714C2.36535 58.7432 3.16326 58.4006 5.32901 57.8866C6.58287 57.6582 8.17869 57.4868 11.2563 57.4297C13.5361 57.3726 15.3599 57.4868 16.8987 57.6582L19.2354 58.0579C22.2561 58.5719 23.396 59.3714 23.6809 60.9132C23.8519 61.9983 23.6809 62.9691 23.396 63.3688L23.339 63.4259L21.6862 64.511C20.8313 65.082 20.4893 65.4818 20.3183 65.8244L19.8054 68.4513C18.6655 74.2191 19.1784 74.7331 25.7327 74.7331C26.3026 74.7331 26.8156 74.676 27.3285 74.676C30.9191 74.3904 31.2611 73.9907 31.0331 70.964L30.9761 70.5072L30.8051 68.5655C30.5202 65.5389 30.5202 65.4818 28.9813 64.3968C28.5824 64.1112 28.1834 63.8257 27.7845 63.483C26.3596 62.2838 26.7016 59.8853 28.7534 58.7432C29.8932 58.115 31.831 57.6582 37.2454 57.4297C37.7013 57.3726 38.1573 57.4297 38.6702 57.4297C39.0692 57.4297 39.4681 57.3155 39.8671 57.4297L40.0951 57.4868L41.5769 57.6011L46.0794 58.0008L46.1934 58.0579C46.4213 58.0579 46.6493 58.1721 46.8203 58.2292C50.4679 59.5998 51.0378 60.6848 50.0119 63.2546C49.784 63.7686 49.385 64.1112 48.1312 64.7965C45.9084 66.0528 46.1364 65.9386 45.9084 76.332C45.9084 77.1886 45.9084 78.1024 45.9084 78.9018L46.0794 86.7826C46.1934 93.3498 46.1364 93.2927 49.271 95.4057C49.727 95.7483 50.0689 96.3194 50.2399 97.176C50.3539 98.0326 50.0689 99.0034 49.328 99.8029C48.4161 100.831 47.1053 101.173 41.8619 101.516C41.5199 101.573 41.121 101.573 40.665 101.573C39.5251 101.63 38.4423 101.687 37.5304 101.687C35.5926 101.687 34.2817 101.573 33.3128 101.402C30.6341 101.059 29.7222 100.831 28.9813 100.545C26.5876 99.5745 26.2456 97.3473 27.6705 95.7483C27.8415 95.4628 28.0694 95.2915 29.4943 94.0922C30.8621 92.9501 31.1471 91.9222 31.0331 87.2394L30.9191 84.841V84.7838C30.6911 82.9564 29.7222 82.4996 26.3596 82.6709C23.8519 82.7851 23.339 82.8422 22.883 82.8422C19.4634 82.7851 18.6085 84.327 19.6344 90.6087L19.9194 92.3219V92.4361C19.9764 92.7217 20.0903 93.0072 20.2613 93.2356C20.6603 93.978 21.0022 94.2635 22.5981 95.063C22.997 95.2915 23.339 95.8625 23.51 96.7762C23.6809 97.5757 23.453 98.4323 22.826 99.2318C22.0851 100.203 20.7743 100.774 17.0697 101.345C15.9868 101.516 14.391 101.63 12.7382 101.687C8.52065 101.745 5.38601 101.288 4.01816 100.831C1.16849 99.86 0.427571 99.1747 0.25659 97.7471Z" fill="white"/>
<path d="M54.1836 87.1823C54.1266 86.6113 54.1266 86.0973 54.1266 85.5262C54.2406 79.53 57.1473 74.6189 62.9606 71.3638C65.6393 69.879 68.546 69.0224 71.3956 68.9653C73.6184 68.9653 75.7841 69.5364 77.8359 70.393C82.6804 72.4488 85.701 76.3321 86.4419 80.6722C87.0119 84.327 86.8409 85.0123 84.9031 86.2686C83.3073 87.2965 77.6079 88.1531 68.9449 86.8968C68.7739 86.7826 68.546 86.7826 68.318 86.7826C67.6341 86.8968 67.2351 87.525 67.5771 88.5529C67.8051 89.4666 68.204 90.0948 69.3439 91.3511C71.8516 94.2064 75.8411 94.4349 81.5405 91.294C81.8255 91.1227 82.0534 91.0085 82.2814 90.8372C82.4524 90.7229 82.7374 90.7229 83.5353 91.0656C84.3332 91.4082 85.0171 92.1506 85.3591 93.1214C85.872 94.7775 84.9031 96.6049 81.0845 99.1747C77.8359 101.345 73.2764 102.487 68.09 101.802C61.9347 101.059 57.6032 97.8613 55.3235 92.0364C54.6965 90.4374 54.2976 88.7813 54.1836 87.1823ZM71.0537 80.7864L72.6495 80.7293H72.8205C74.7013 80.4437 75.1572 79.7013 74.2453 77.2458C74.0743 76.7318 73.7894 76.3321 73.3904 75.8181C71.6236 74.3333 69.1159 74.7331 67.7481 77.1315C67.5771 77.5313 67.4061 77.931 67.3491 78.3879C66.8362 80.9006 67.1211 80.9577 71.0537 80.7864Z" fill="white"/>
<path d="M90.5824 92.379C90.7534 88.1531 93.8311 84.4983 100.328 83.0706C101.069 82.8422 101.753 82.7851 102.437 82.7851C106.028 82.728 106.826 82.7851 107.566 82.9564C107.794 83.0135 108.535 82.3854 108.535 81.2432C108.535 80.1011 108.307 79.0732 108.079 77.931L107.737 76.5034V76.3892C107.168 74.6189 105.629 73.9907 104.204 74.8473C103.406 75.4183 102.608 76.2178 101.924 77.2458C100.1 79.9298 98.6755 80.9006 96.6237 81.0148C94.344 81.129 92.5772 79.4729 92.6912 77.1886C92.7482 74.8473 94.002 73.077 98.0486 71.1353C99.7014 70.2787 101.867 69.6506 104.66 69.3079C118.965 67.6518 122.271 72.2775 122.157 86.2115C122.1 87.1252 122.1 87.9247 122.043 88.7242C121.929 92.0364 122.157 92.4932 124.437 93.8067C125.747 94.492 126.146 96.6049 125.007 98.6037C123.981 100.317 121.416 101.687 116.856 101.916C113.779 102.087 112.24 101.459 110.815 99.9171L110.53 99.5745L110.074 98.9463C109.561 98.1468 109.333 98.2039 108.592 99.1176C106.826 101.059 104.261 102.087 100.955 101.973C96.1108 101.859 93.2041 100.146 91.4943 97.0047C90.8674 95.6912 90.5254 94.0351 90.5824 92.379ZM106.199 95.1202C107.225 95.3486 108.307 94.6062 108.364 94.0922C108.364 93.1214 108.478 92.2077 108.478 91.3511C108.478 87.8105 107.965 86.7826 105.515 87.8105C104.66 88.096 103.976 89.0668 103.748 90.7229C103.463 93.2356 104.432 94.8346 106.199 95.1202Z" fill="white"/>
<path d="M129.657 65.4818C129.429 64.7394 129.543 63.8257 130.113 62.8549C131.025 61.2559 133.532 59.714 140.657 58.0579C141.34 57.8866 142.081 57.7724 142.822 57.7153L145.672 57.4868C149.149 57.2013 149.491 57.6011 149.434 61.7127L149.377 63.3688L149.149 73.0199C149.092 74.162 149.092 75.5897 149.149 77.5313L149.377 84.6125L149.491 88.4958L149.605 90.4945V90.8372L149.833 92.9501C150.004 94.5491 150.402 95.063 152.511 96.1481C153.138 96.4336 153.48 97.9184 152.055 99.4032C151.542 99.9742 150.915 100.431 149.548 100.888C148.123 101.345 145.33 101.745 140.429 101.687C139.916 101.63 139.403 101.63 138.89 101.573H138.719L135.926 101.116C133.304 100.717 132.393 100.374 131.709 99.6316C130.227 98.3181 130.341 96.2052 131.538 95.5199C132.108 95.1773 132.677 94.8917 133.304 94.6633C134.159 94.2635 134.615 92.6075 134.9 81.4716C135.185 69.4792 135.014 68.7369 131.139 67.195C130.455 66.9094 129.942 66.3384 129.657 65.4818Z" fill="white"/>
<path d="M161.885 76.7889L159.605 76.6747H159.377C156.471 76.7318 156.015 76.5605 156.413 73.1341C156.471 72.4488 156.755 72.1062 158.123 71.0782C158.921 70.5643 159.833 69.9932 164.906 67.3092C165.134 67.195 165.305 66.9666 168.724 64.3396C169.978 63.4259 170.719 63.0262 171.46 62.912C174.879 62.1696 175.905 63.2546 175.848 66.681L175.677 69.5364V69.7648C175.62 70.5072 175.848 70.5072 176.988 70.5072C177.273 70.4501 177.672 70.5072 179.325 70.5643C181.206 70.6785 182.118 70.6785 182.915 70.6214C183.542 70.5643 184.226 71.0211 184.739 72.2775C184.967 72.8485 185.024 73.4767 184.91 74.2762C184.397 76.7318 183.827 76.9031 179.496 76.9602H177.045C175.392 76.9031 175.62 76.7889 175.848 82.0998C175.905 84.2128 175.905 86.3828 175.848 88.5529V88.6671L176.133 90.3803C176.532 92.8359 178.356 93.6354 182.004 91.5795C182.631 91.1798 183.542 91.4082 184.283 92.3219C184.625 92.6646 184.967 93.5783 184.967 95.063C184.967 96.3194 183.941 97.7471 180.75 99.8029C178.983 101.002 176.646 101.745 174.081 101.916C168.382 102.373 164.735 100.488 162.968 96.7191C161.771 94.3778 161.543 92.4932 161.657 81.643C161.657 79.9869 161.771 78.445 161.885 76.7889Z" fill="white"/>
<path d="M206.216 74.2191L207.128 73.3625L208.667 71.8206L209.123 71.2496C210.434 69.8219 213.34 68.794 216.646 68.9653C218.698 69.0795 220.521 69.7077 222.06 70.7927C225.879 73.4767 226.278 75.3612 226.677 88.6671C226.677 89.5808 226.677 90.3803 226.677 91.294C226.677 93.978 226.905 94.3778 228.785 95.5199C229.07 95.6912 229.241 95.8625 229.355 95.9768C230.324 96.7191 230.267 98.8892 228.729 100.203C227.817 100.945 225.708 101.687 221.091 101.687C219.895 101.687 218.641 101.63 217.159 101.573C211.516 101.231 209.351 98.5466 210.263 96.2623V96.2052L211.402 94.8917C212.314 93.9209 212.428 93.2927 212.599 88.6671C212.713 86.2115 212.656 85.0123 212.542 83.8701C212.143 79.8727 209.579 78.3308 207.413 79.3587C205.418 80.3295 205.19 81.643 205.874 90.5516L206.159 94.2064L206.216 94.2636C206.501 95.2344 206.558 95.3486 207.527 96.2623C207.983 96.7191 208.211 97.4615 208.097 98.3752C207.869 100.203 205.646 101.687 199.434 101.687C197.781 101.687 195.9 101.573 193.677 101.345C192.538 101.231 191.455 100.945 190.6 100.602C188.32 99.5745 187.693 97.2902 188.662 96.1481C188.947 95.7483 189.289 95.4057 189.916 94.8917C190.087 94.7204 190.258 94.5491 190.486 94.4349C191.113 93.978 191.569 92.3219 191.626 87.4108L191.854 76.3892C191.854 75.247 191.797 74.162 191.797 73.0199C191.569 68.3371 191.398 67.766 191.227 67.6518L189.859 66.9094C189.517 66.7381 189.175 66.4526 188.605 65.7673C187.009 63.7686 187.693 61.6556 191.113 60.2851L192.595 59.714L193.563 59.3714C196.584 58.3434 198.579 57.8295 200.403 57.6011H200.574L202.796 57.4868C205.532 57.3155 206.102 57.8866 205.703 60.2851C204.734 65.3676 204.848 69.7077 205.817 73.3625L205.931 73.5909L206.216 74.2191Z" fill="white"/>
</svg>
