<svg width="50" height="50" viewBox="0 0 50 50" fill="none" xmlns="http://www.w3.org/2000/svg">
<circle cx="25" cy="25" r="25" fill="#227BE5"/>
<path d="M40 15.8857C38.8958 16.376 37.7097 16.706 36.4648 16.8549C37.7362 16.0933 38.7112 14.8876 39.1704 13.45C37.982 14.155 36.6644 14.6672 35.2613 14.9442C34.1387 13.7477 32.5395 13 30.7696 13C27.3705 13 24.6152 15.7564 24.6152 19.1544C24.6152 19.6367 24.6706 20.1074 24.7744 20.5562C19.6596 20.3001 15.1252 17.8494 12.0884 14.125C11.5599 15.0342 11.2565 16.091 11.2565 17.2206C11.2565 19.3551 12.3422 21.2393 13.9933 22.3423C12.9849 22.31 12.0353 22.0331 11.2057 21.5727C11.2057 21.5993 11.2057 21.6235 11.2057 21.6501C11.2057 24.6326 13.3264 27.1202 16.1428 27.6844C15.6271 27.8252 15.0825 27.9002 14.5206 27.9002C14.1248 27.9002 13.7383 27.861 13.3633 27.7906C14.1468 30.2355 16.4198 32.0158 19.1127 32.0654C17.007 33.7165 14.3533 34.7007 11.4688 34.7007C10.9727 34.7007 10.4823 34.6719 10 34.6142C12.7241 36.3599 15.9582 37.3787 19.4346 37.3787C30.7557 37.3787 36.9447 28.0006 36.9447 19.8674C36.9447 19.6009 36.939 19.3355 36.9274 19.0713C38.1308 18.2025 39.175 17.1191 40 15.8857Z" fill="white"/>
</svg>
